<svg id="avologo" width="370" height="462.5" viewBox="0 0 370 370" preserveAspectRatio="xMidYMin meet"><g id="ring0" class="ring ring0" transform="translate(0,10)" opacity="1"><path d="M1.1327982892113017e-14,185A185,185 0 0,1 -3.398394867633905e-14,-185L-2.6431960081597038e-14,-143.88888888888889A143.88888888888889,143.88888888888889 0 0,0 8.810653360532347e-15,143.88888888888889Z" transform="translate(185,185)" class="arcleft" style="stroke: rgb(61, 147, 92); fill: rgb(62, 147, 92);"></path><path d="M1.1327982892113017e-14,185A185,185 0 0,0 1.1327982892113017e-14,-185L8.810653360532347e-15,-143.88888888888889A143.88888888888889,143.88888888888889 0 0,1 8.810653360532347e-15,143.88888888888889Z" transform="translate(185,185)" class="arcright" style="stroke: rgb(61, 147, 92); fill: rgb(54, 129, 81);"></path></g><g id="ring1" class="ring ring1" transform="translate(0,10)" opacity="1"><path d="M7.551988594742012e-15,123.33333333333333A123.33333333333333,123.33333333333333 0 0,1 -2.265596578422603e-14,-123.33333333333333L-1.510397718948402e-14,-82.22222222222221A82.22222222222221,82.22222222222221 0 0,0 5.03465906316134e-15,82.22222222222221Z" transform="translate(185,185)" class="arcleft" style="stroke: rgb(173, 198, 73); fill: rgb(173, 197, 73);"></path><path d="M7.551988594742012e-15,123.33333333333333A123.33333333333333,123.33333333333333 0 0,0 7.551988594742012e-15,-123.33333333333333L5.03465906316134e-15,-82.22222222222221A82.22222222222221,82.22222222222221 0 0,1 5.03465906316134e-15,82.22222222222221Z" transform="translate(185,185)" class="arcright" style="stroke: rgb(173, 198, 73); fill: rgb(161, 186, 59);"></path></g><g id="ring2" class="ring ring2" transform="translate(0,10)" opacity="1"><path d="M3.775994297371005e-15,61.66666666666666A61.66666666666666,61.66666666666666 0 0,1 -1.1327982892113015e-14,-61.66666666666666L0,0Z" transform="translate(185,185)" class="arcleft" style="stroke: rgb(204, 212, 43); fill: rgb(203, 212, 43);"></path><path d="M3.775994297371005e-15,61.66666666666666A61.66666666666666,61.66666666666666 0 0,0 3.775994297371005e-15,-61.66666666666666L0,0Z" transform="translate(185,185)" class="arcright" style="stroke: rgb(204, 212, 43); fill: rgb(183, 190, 39);"></path></g><text x="935" y="458.5" class="logotext" opacity="1" style="font-family: Montserrat; font-size: 6em; text-anchor: middle; fill: rgb(0, 87, 46); stroke: rgb(0, 87, 46);">avocado</text></svg>
